<svg xmlns="http://www.w3.org/2000/svg" xmlns:xlink="http://www.w3.org/1999/xlink" width="213.953" height="59" viewBox="0 0 213.953 59">
  <defs>
    <clipPath id="clip-path">
      <rect id="Rechteck_1" data-name="Rechteck 1" width="213.953" height="59" transform="translate(0 1)"/>
    </clipPath>
  </defs>
  <g id="Logo" transform="translate(0 -1)">
    <g id="Gruppe_1" data-name="Gruppe 1" transform="translate(53.817 15.069)">
      <path id="Pfad_1" data-name="Pfad 1" d="M33.5,28.536V27.2a2.434,2.434,0,0,1,.129-.851,2.664,2.664,0,0,1,.418-.675l7.647-8.948a.334.334,0,0,0,.08-.305.223.223,0,0,0-.241-.145h-7.2a.665.665,0,0,1-.755-.755V13.885a.665.665,0,0,1,.755-.755H45.758a.665.665,0,0,1,.755.755v1.333a2.434,2.434,0,0,1-.129.851,2.352,2.352,0,0,1-.418.659l-7.647,8.948a.334.334,0,0,0-.08.305.223.223,0,0,0,.241.145h7.326a.665.665,0,0,1,.755.755v1.655a.665.665,0,0,1-.755.755H34.255A.659.659,0,0,1,33.5,28.536Z" transform="translate(-33.5 -7.106)" fill="#161a31"/>
      <path id="Pfad_2" data-name="Pfad 2" d="M46.12,13.351H43.9c-.482,0-.723-.257-.723-.755V10.315c0-.514.241-.755.723-.755H46.12a.665.665,0,0,1,.755.755V12.6A.665.665,0,0,1,46.12,13.351Zm0,18.105H43.9c-.482,0-.723-.257-.723-.755V16.05c0-.514.241-.755.723-.755H46.12a.665.665,0,0,1,.755.755V30.7A.659.659,0,0,1,46.12,31.456Z" transform="translate(-27.629 -9.271)" fill="#161a31"/>
      <path id="Pfad_3" data-name="Pfad 3" d="M48.463,13.12h2.185a.665.665,0,0,1,.755.755v1.462c0,.193.08.209.225.064L52.7,14.325a4.62,4.62,0,0,1,1.237-.916,3.543,3.543,0,0,1,1.526-.289h2.185a4.655,4.655,0,0,1,1.88.321,5.376,5.376,0,0,1,1.462,1.076l.691.691A4.406,4.406,0,0,1,62.7,16.654a4.851,4.851,0,0,1,.289,1.8V23.98a4.851,4.851,0,0,1-.289,1.8,4.406,4.406,0,0,1-1.012,1.446l-.691.691a5.057,5.057,0,0,1-1.462,1.076,4.655,4.655,0,0,1-1.88.321H55.467a3.543,3.543,0,0,1-1.526-.289,4.621,4.621,0,0,1-1.237-.916L51.66,27.064c-.145-.145-.225-.129-.225.064v7.133a.665.665,0,0,1-.755.755H48.463c-.482,0-.723-.257-.723-.755V13.891Q47.74,13.12,48.463,13.12Zm3.068,10.185a1.466,1.466,0,0,0,.418.53L53.7,25.586a1.732,1.732,0,0,0,1.3.546h2.056a1.769,1.769,0,0,0,1.333-.546l.321-.321a3.115,3.115,0,0,0,.45-.627,2.181,2.181,0,0,0,.129-.819V18.614a2.181,2.181,0,0,0-.129-.819,2.625,2.625,0,0,0-.45-.643l-.321-.321a1.83,1.83,0,0,0-1.333-.546H55a1.676,1.676,0,0,0-1.3.546l-1.751,1.751a1.5,1.5,0,0,0-.418.546,2.18,2.18,0,0,0-.1.723v2.731A3.266,3.266,0,0,0,51.531,23.305Z" transform="translate(-24.864 -7.112)" fill="#161a31"/>
      <path id="Pfad_4" data-name="Pfad 4" d="M72.428,29.291H70.243a.665.665,0,0,1-.755-.755V18.608a2.181,2.181,0,0,0-.129-.819,2.245,2.245,0,0,0-.45-.643l-.321-.321a1.83,1.83,0,0,0-1.333-.546h-.884a1.676,1.676,0,0,0-1.3.546l-1.751,1.751a1.5,1.5,0,0,0-.418.546,2.18,2.18,0,0,0-.1.723v8.691a.665.665,0,0,1-.755.755H59.833c-.482,0-.723-.257-.723-.755V13.885c0-.514.241-.755.723-.755h2.185a.665.665,0,0,1,.755.755v1.462c0,.193.08.209.225.064l1.076-1.076a4.621,4.621,0,0,1,1.237-.916,3.543,3.543,0,0,1,1.526-.289h1.012a4.594,4.594,0,0,1,1.847.321,5.194,5.194,0,0,1,1.478,1.076l1.366,1.366a.227.227,0,0,0,.353,0l1.558-1.558a4.621,4.621,0,0,1,1.237-.916,3.543,3.543,0,0,1,1.526-.289h1.012a4.594,4.594,0,0,1,1.847.321,5.194,5.194,0,0,1,1.478,1.076l.691.691a4.406,4.406,0,0,1,1.012,1.446,4.851,4.851,0,0,1,.289,1.8V28.552a.665.665,0,0,1-.755.755H80.621a.665.665,0,0,1-.755-.755V18.624a2.181,2.181,0,0,0-.129-.819,2.245,2.245,0,0,0-.45-.643l-.321-.321a1.83,1.83,0,0,0-1.333-.546h-.884a1.676,1.676,0,0,0-1.3.546L73.7,18.592a1.5,1.5,0,0,0-.418.546,2.18,2.18,0,0,0-.1.723v8.691C73.2,29.05,72.942,29.291,72.428,29.291Z" transform="translate(-17.968 -7.106)" fill="#161a31"/>
      <path id="Pfad_5" data-name="Pfad 5" d="M87.46,13.453a5.376,5.376,0,0,1,1.462,1.076l.691.691a4.405,4.405,0,0,1,1.012,1.446,4.851,4.851,0,0,1,.289,1.8v3.486a.665.665,0,0,1-.755.755H80.07a.288.288,0,0,0-.321.321v.787a2.275,2.275,0,0,0,.129.835,1.8,1.8,0,0,0,.45.61l.321.321a1.83,1.83,0,0,0,1.333.546h7.679a.665.665,0,0,1,.755.755v1.655a.665.665,0,0,1-.755.755H81.387a4.518,4.518,0,0,1-1.864-.321A5.376,5.376,0,0,1,78.062,27.9l-.691-.691a4.406,4.406,0,0,1-1.012-1.446,4.851,4.851,0,0,1-.289-1.8V18.434a4.851,4.851,0,0,1,.289-1.8,4.406,4.406,0,0,1,1.012-1.446l.691-.691a5.057,5.057,0,0,1,1.462-1.076,4.624,4.624,0,0,1,1.864-.321H85.6A5.117,5.117,0,0,1,87.46,13.453Zm-6.812,3.39-.321.321a2.776,2.776,0,0,0-.45.643,2.181,2.181,0,0,0-.129.819v.61a.288.288,0,0,0,.321.321h6.908a.288.288,0,0,0,.321-.321v-.61a2.181,2.181,0,0,0-.129-.819,2.245,2.245,0,0,0-.45-.643l-.321-.321a1.83,1.83,0,0,0-1.333-.546h-3.1A1.886,1.886,0,0,0,80.648,16.843Z" transform="translate(-7.682 -7.124)" fill="#161a31"/>
      <path id="Pfad_6" data-name="Pfad 6" d="M97.922,17.789a2.625,2.625,0,0,0-.45-.643l-.321-.321a1.83,1.83,0,0,0-1.333-.546H94.291a1.676,1.676,0,0,0-1.3.546l-1.751,1.751a1.5,1.5,0,0,0-.418.546,2.18,2.18,0,0,0-.1.723v8.691a.665.665,0,0,1-.755.755H87.753c-.482,0-.723-.257-.723-.755V13.885c0-.514.241-.755.723-.755h2.185a.665.665,0,0,1,.755.755v1.462c0,.193.08.209.225.064l1.076-1.076a4.62,4.62,0,0,1,1.237-.916,3.543,3.543,0,0,1,1.526-.289h1.655a4.734,4.734,0,0,1,1.864.321,5.194,5.194,0,0,1,1.478,1.076l.691.691a4.405,4.405,0,0,1,1.012,1.446,4.851,4.851,0,0,1,.289,1.8V28.552a.665.665,0,0,1-.755.755H98.806a.665.665,0,0,1-.755-.755V18.624A2.215,2.215,0,0,0,97.922,17.789Z" transform="translate(-1.034 -7.106)" fill="#161a31"/>
      <path id="Pfad_7" data-name="Pfad 7" d="M112.443,31.566h-2.185a.665.665,0,0,1-.755-.755V29.349c0-.193-.08-.209-.225-.064L108.2,30.361a4.621,4.621,0,0,1-1.237.916,3.543,3.543,0,0,1-1.526.289h-2.185a4.654,4.654,0,0,1-1.88-.321,5.376,5.376,0,0,1-1.462-1.076l-.691-.691a4.406,4.406,0,0,1-1.012-1.446,4.851,4.851,0,0,1-.289-1.8V20.706a4.851,4.851,0,0,1,.289-1.8,4.406,4.406,0,0,1,1.012-1.446l.691-.691a5.057,5.057,0,0,1,1.462-1.076,4.654,4.654,0,0,1,1.88-.321h2.185a3.543,3.543,0,0,1,1.526.289,4.62,4.62,0,0,1,1.237.916l1.044,1.044c.145.145.225.129.225-.064V10.135a.665.665,0,0,1,.755-.755h2.217c.482,0,.723.257.723.755V30.811A.643.643,0,0,1,112.443,31.566ZM109.374,21.4a1.341,1.341,0,0,0-.418-.546L107.206,19.1a1.732,1.732,0,0,0-1.3-.546h-2.056a1.769,1.769,0,0,0-1.333.546l-.321.321a2.776,2.776,0,0,0-.45.643,2.181,2.181,0,0,0-.129.819v5.205a2.123,2.123,0,0,0,.129.819,2.2,2.2,0,0,0,.45.627l.321.321a1.83,1.83,0,0,0,1.333.546H105.9a1.676,1.676,0,0,0,1.3-.546l1.751-1.751a1.613,1.613,0,0,0,.418-.53,2.18,2.18,0,0,0,.1-.723V22.119A2.055,2.055,0,0,0,109.374,21.4Z" transform="translate(5.57 -9.38)" fill="#161a31"/>
    </g>
    <g id="Gruppe_2" data-name="Gruppe 2" transform="translate(54.99 46.283)">
      <path id="Pfad_8" data-name="Pfad 8" d="M34.23,38.063v-8.98c0-.177.08-.273.257-.273H40.3a.246.246,0,0,1,.273.273V29.6c0,.177-.1.257-.273.257H35.531c-.1,0-.129.048-.129.129v2.779c0,.1.048.129.129.129H39.66c.177,0,.273.08.273.257v.482a.246.246,0,0,1-.273.273H35.531c-.1,0-.129.048-.129.129v3.117c0,.1.048.129.129.129H40.3c.177,0,.273.08.273.257v.514a.246.246,0,0,1-.273.273H34.487A.223.223,0,0,1,34.23,38.063Z" transform="translate(-34.23 -28.81)" fill="#161a31"/>
      <path id="Pfad_9" data-name="Pfad 9" d="M44.4,37.278a1.115,1.115,0,0,1-.225-.241l-1.735-2.41c-.048-.1-.112-.1-.177,0l-1.735,2.41a.825.825,0,0,1-.225.241.54.54,0,0,1-.305.064h-.5c-.129,0-.209-.032-.241-.112a.271.271,0,0,1,.064-.273l2.169-3a.265.265,0,0,0,0-.305L39.4,30.836a.264.264,0,0,1-.048-.257.21.21,0,0,1,.225-.129h.514a.483.483,0,0,1,.289.064,1.472,1.472,0,0,1,.225.225L42.276,33c.064.1.129.1.177,0l1.671-2.265a.732.732,0,0,1,.225-.225.642.642,0,0,1,.289-.064h.514c.129,0,.209.048.225.129a.258.258,0,0,1-.048.257L43.24,33.647a.265.265,0,0,0,0,.305l2.169,3a.294.294,0,0,1,.048.273c-.032.08-.112.112-.241.112h-.53A.971.971,0,0,1,44.4,37.278Z" transform="translate(-31.191 -27.815)" fill="#161a31"/>
      <path id="Pfad_10" data-name="Pfad 10" d="M44.467,30.45h.594c.193,0,.289.1.289.273v.8c0,.08.032.1.1.032l.546-.546a2.208,2.208,0,0,1,.562-.434,1.576,1.576,0,0,1,.723-.129h.8a2.148,2.148,0,0,1,.8.129,2.413,2.413,0,0,1,.627.466l.305.305a1.842,1.842,0,0,1,.434.627,2.147,2.147,0,0,1,.129.771v2.313a2.147,2.147,0,0,1-.129.771,1.842,1.842,0,0,1-.434.627l-.305.305a2.413,2.413,0,0,1-.627.466,1.866,1.866,0,0,1-.8.129h-.8a1.765,1.765,0,0,1-.723-.129,1.829,1.829,0,0,1-.562-.434l-.546-.53c-.064-.064-.1-.048-.1.032v3.245a.246.246,0,0,1-.273.273h-.61c-.177,0-.257-.1-.257-.273V30.755C44.21,30.546,44.29,30.45,44.467,30.45Zm.932,4.514a.859.859,0,0,0,.193.273l.835.819a.884.884,0,0,0,.659.273H48a.937.937,0,0,0,.659-.273l.273-.273a.979.979,0,0,0,.225-.321,1.073,1.073,0,0,0,.064-.434V32.747a1.123,1.123,0,0,0-.064-.434,1.178,1.178,0,0,0-.225-.321l-.273-.273A.91.91,0,0,0,48,31.446h-.916a.91.91,0,0,0-.659.273l-.835.835a.859.859,0,0,0-.193.273.977.977,0,0,0-.048.353v1.414A1.078,1.078,0,0,0,45.4,34.964Z" transform="translate(-28.177 -27.815)" fill="#161a31"/>
      <path id="Pfad_11" data-name="Pfad 11" d="M53.461,30.723v.482c0,.193-.1.289-.273.289H52.143a.975.975,0,0,0-.675.273l-.787.8a.859.859,0,0,0-.193.273.977.977,0,0,0-.048.353v3.872a.246.246,0,0,1-.273.273h-.61c-.177,0-.257-.1-.257-.273V30.723c0-.177.08-.273.257-.273h.594c.193,0,.289.1.289.273v.8c0,.08.032.1.1.032l.546-.546a2.208,2.208,0,0,1,.562-.434,1.576,1.576,0,0,1,.723-.129H53.2C53.38,30.45,53.461,30.546,53.461,30.723Z" transform="translate(-25.09 -27.815)" fill="#161a31"/>
      <path id="Pfad_12" data-name="Pfad 12" d="M57.324,30.579a2.413,2.413,0,0,1,.627.466l.305.305a1.842,1.842,0,0,1,.434.627,2.148,2.148,0,0,1,.129.771V34.1a.246.246,0,0,1-.273.273H54.111c-.1,0-.129.048-.129.129v.546a1.123,1.123,0,0,0,.064.434,1.178,1.178,0,0,0,.225.321l.273.273a.91.91,0,0,0,.659.273h3.149a.246.246,0,0,1,.273.273v.466a.246.246,0,0,1-.273.273H55.107a2.148,2.148,0,0,1-.8-.129,2.413,2.413,0,0,1-.627-.466l-.305-.305a1.842,1.842,0,0,1-.434-.627,2.148,2.148,0,0,1-.129-.771V32.747a2.147,2.147,0,0,1,.129-.771,1.842,1.842,0,0,1,.434-.627l.305-.305a2.413,2.413,0,0,1,.627-.466,1.866,1.866,0,0,1,.8-.129h1.43A2.177,2.177,0,0,1,57.324,30.579Zm-2.811,1.157-.273.273a.979.979,0,0,0-.225.321,1.073,1.073,0,0,0-.064.434v.482c0,.1.048.129.129.129h3.438c.1,0,.129-.048.129-.129v-.482a1.123,1.123,0,0,0-.064-.434,1.178,1.178,0,0,0-.225-.321l-.273-.273a.91.91,0,0,0-.659-.273H55.139A.83.83,0,0,0,54.513,31.735Z" transform="translate(-22.961 -27.815)" fill="#161a31"/>
      <path id="Pfad_13" data-name="Pfad 13" d="M58.712,34.257a1.364,1.364,0,0,1-.5-.353l-.161-.177a1.811,1.811,0,0,1-.337-.45,1.174,1.174,0,0,1-.1-.514v-.5a1.587,1.587,0,0,1,.1-.594,1.321,1.321,0,0,1,.353-.482l.225-.209a1.925,1.925,0,0,1,.53-.4,1.549,1.549,0,0,1,.659-.129h3.229a.246.246,0,0,1,.273.273v.466a.246.246,0,0,1-.273.273H59.644a.81.81,0,0,0-.305.048.667.667,0,0,0-.225.177l-.145.145a1.235,1.235,0,0,0-.161.241.563.563,0,0,0-.048.257v.321a.972.972,0,0,0,.032.241.49.49,0,0,0,.145.209l.1.1a.847.847,0,0,0,.225.161.563.563,0,0,0,.257.048h2.056a1.587,1.587,0,0,1,.594.1,1.364,1.364,0,0,1,.5.353l.161.177a1.811,1.811,0,0,1,.337.45,1.174,1.174,0,0,1,.1.514v.578a1.557,1.557,0,0,1-.1.578,1.321,1.321,0,0,1-.353.482l-.225.225a1.845,1.845,0,0,1-.53.386,1.549,1.549,0,0,1-.659.129H57.909a.246.246,0,0,1-.273-.273v-.466a.246.246,0,0,1,.273-.273h3.342a.81.81,0,0,0,.305-.048.544.544,0,0,0,.225-.177l.145-.145a1.235,1.235,0,0,0,.161-.241.563.563,0,0,0,.048-.257v-.369a.972.972,0,0,0-.032-.241.49.49,0,0,0-.145-.209l-.112-.129a.745.745,0,0,0-.225-.145.563.563,0,0,0-.257-.048H59.307A1.708,1.708,0,0,1,58.712,34.257Z" transform="translate(-20.044 -27.815)" fill="#161a31"/>
      <path id="Pfad_14" data-name="Pfad 14" d="M63.242,34.257a1.364,1.364,0,0,1-.5-.353l-.161-.177a1.811,1.811,0,0,1-.337-.45,1.174,1.174,0,0,1-.1-.514v-.5a1.587,1.587,0,0,1,.1-.594,1.321,1.321,0,0,1,.353-.482l.225-.209a1.925,1.925,0,0,1,.53-.4,1.549,1.549,0,0,1,.659-.129h3.229a.246.246,0,0,1,.273.273v.466a.246.246,0,0,1-.273.273H64.158a.81.81,0,0,0-.305.048.667.667,0,0,0-.225.177l-.145.145a1.235,1.235,0,0,0-.161.241.563.563,0,0,0-.048.257v.321a.972.972,0,0,0,.032.241.49.49,0,0,0,.145.209l.1.1a.847.847,0,0,0,.225.161.563.563,0,0,0,.257.048h2.056a1.587,1.587,0,0,1,.594.1,1.364,1.364,0,0,1,.5.353l.161.177a1.811,1.811,0,0,1,.337.45,1.174,1.174,0,0,1,.1.514v.578a1.556,1.556,0,0,1-.1.578,1.321,1.321,0,0,1-.353.482l-.225.225a1.845,1.845,0,0,1-.53.386,1.549,1.549,0,0,1-.659.129H62.423a.246.246,0,0,1-.273-.273v-.466a.246.246,0,0,1,.273-.273h3.341a.81.81,0,0,0,.305-.048.544.544,0,0,0,.225-.177l.145-.145a1.234,1.234,0,0,0,.161-.241.563.563,0,0,0,.048-.257v-.369a.973.973,0,0,0-.032-.241.49.49,0,0,0-.145-.209l-.1-.129a.745.745,0,0,0-.225-.145.563.563,0,0,0-.257-.048H63.837A1.708,1.708,0,0,1,63.242,34.257Z" transform="translate(-17.297 -27.815)" fill="#161a31"/>
    </g>
    <g id="Gruppe_5" data-name="Gruppe 5">
      <g id="Gruppe_3" data-name="Gruppe 3" clip-path="url(#clip-path)">
        <path id="Pfad_15" data-name="Pfad 15" d="M10.682,23.26,30.024,42.04H1.332A1.3,1.3,0,0,1,.192,40.08Z" transform="translate(0.001 14.107)" fill="#e50043"/>
      </g>
      <g id="Gruppe_24" data-name="Gruppe 24">
        <path id="Pfad_16" data-name="Pfad 16" d="M44.515,27.972,30.314,4.26a2.177,2.177,0,0,0-1.88-1.06H2.168A1.841,1.841,0,0,0,.546,6L14.7,28.7l15.149,25.5L44.5,29.659a1.631,1.631,0,0,0,.016-1.687" transform="translate(0.161 1.941)" fill="#e50043"/>
      </g>
    </g>
  </g>
</svg>
